<svg xmlns="http://www.w3.org/2000/svg" version="1.1" xmlns:xlink="http://www.w3.org/1999/xlink" xmlns:svgjs="http://svgjs.com/svgjs" width="50" height="50"><svg xmlns="http://www.w3.org/2000/svg" viewBox="0 0 50 50" class="block h-9 w-auto"><path d="M 12 0 C 10.906937 0 10 0.9069372 10 2 L 10 4 L 4 4 C 2.841 4 2 4.841 2 6 L 2 46 C 2 47.159 2.841 48 4 48 L 27.207031 48 C 27.156031 47.814 27.0925 47.632453 27.0625 47.439453 C 26.9895 46.960453 26.987016 46.478 27.041016 46 L 4 46 L 4 15 L 46 15 L 46 24.662109 L 48 24.253906 L 48 6 C 48 4.841 47.159 4 46 4 L 40 4 L 40 2 C 40 0.9069372 39.093063 0 38 0 L 36 0 C 34.906937 0 34 0.9069372 34 2 L 34 4 L 16 4 L 16 2 C 16 0.9069372 15.093063 0 14 0 L 12 0 z M 12 2 L 14 2 L 14 8 L 12 8 L 12 2 z M 36 2 L 38 2 L 38 8 L 36 8 L 36 2 z M 4 6 L 10 6 L 10 8 C 10 9.0930628 10.906937 10 12 10 L 14 10 C 15.093063 10 16 9.0930628 16 8 L 16 6 L 34 6 L 34 8 C 34 9.0930628 34.906937 10 36 10 L 38 10 C 39.093063 10 40 9.0930628 40 8 L 40 6 L 46 6 L 46 13 L 4 13 L 4 6 z M 49.052734 26.111328 C 48.978729 26.10757 48.902797 26.113453 48.826172 26.126953 L 37.130859 28.720703 C 36.476859 28.835703 36 29.402406 36 30.066406 L 36 42.222656 C 36 42.679656 35.689094 43.078406 35.246094 43.191406 L 31.800781 44.070312 L 31.509766 44.140625 C 30.215766 44.525625 29.063156 45.6 29.035156 47 C 29.037156 47.009 29.039063 47.011437 29.039062 47.023438 C 29.039062 48.669438 30.980625 50 32.765625 50 L 32.865234 50 C 35.700234 50 38 47.700234 38 44.865234 L 38 34.257812 L 48 32 L 48 39.238281 C 48 39.695281 47.689094 40.094031 47.246094 40.207031 L 43.800781 41.085938 L 43.509766 41.154297 C 42.211766 41.540297 41 42.551344 41 44.027344 C 41.001 44.032344 41.001953 44.031109 41.001953 44.037109 C 41.001953 46.006109 42.980625 47.015625 44.765625 47.015625 L 44.865234 47.015625 C 47.700234 47.015625 50 44.715859 50 41.880859 L 50 27.111328 C 50 26.567078 49.570775 26.137633 49.052734 26.111328 z"></path></svg><style>@media (prefers-color-scheme: light) { :root { filter: none; } }
</style></svg>